<svg xmlns="http://www.w3.org/2000/svg" width="41.327" height="41.328" viewBox="0 0 41.327 41.328">
  <g id="_2" data-name="2" transform="translate(0.001 -0.002)">
    <g id="Сгруппировать_7544" data-name="Сгруппировать 7544" transform="translate(8.411 11.002)">
      <g id="Сгруппировать_7543" data-name="Сгруппировать 7543">
        <path id="Контур_5271" data-name="Контур 5271" d="M107.407,136.275a3.194,3.194,0,1,0,3.194,3.194A3.2,3.2,0,0,0,107.407,136.275Zm0,5.176a1.983,1.983,0,1,1,1.983-1.983A1.985,1.985,0,0,1,107.407,141.451Z" transform="translate(-104.213 -136.275)" fill="#f2af1c"/>
      </g>
    </g>
    <g id="Сгруппировать_7546" data-name="Сгруппировать 7546" transform="translate(21.999 25.884)">
      <g id="Сгруппировать_7545" data-name="Сгруппировать 7545">
        <path id="Контур_5272" data-name="Контур 5272" d="M275.743,320.646a3.194,3.194,0,1,0,3.194,3.194A3.2,3.2,0,0,0,275.743,320.646Zm0,5.176a1.983,1.983,0,1,1,1.983-1.983A1.985,1.985,0,0,1,275.743,325.822Z" transform="translate(-272.549 -320.646)" fill="#f2af1c"/>
      </g>
    </g>
    <g id="Сгруппировать_7548" data-name="Сгруппировать 7548" transform="translate(10.352 24.589)">
      <g id="Сгруппировать_7547" data-name="Сгруппировать 7547">
        <path id="Контур_5273" data-name="Контур 5273" d="M130.806,304.613a2.547,2.547,0,1,0,2.547,2.547A2.549,2.549,0,0,0,130.806,304.613Zm0,3.882a1.336,1.336,0,1,1,1.336-1.336A1.337,1.337,0,0,1,130.806,308.5Z" transform="translate(-128.26 -304.613)" fill="#f2af1c"/>
      </g>
    </g>
    <g id="Сгруппировать_7550" data-name="Сгруппировать 7550" transform="translate(18.117 15.531)">
      <g id="Сгруппировать_7549" data-name="Сгруппировать 7549">
        <path id="Контур_5274" data-name="Контур 5274" d="M226.353,192.388a1.9,1.9,0,1,0,1.9,1.9A1.9,1.9,0,0,0,226.353,192.388Zm0,2.588a.689.689,0,1,1,.689-.689A.69.69,0,0,1,226.353,194.976Z" transform="translate(-224.454 -192.388)" fill="#f2af1c"/>
      </g>
    </g>
    <g id="Сгруппировать_7552" data-name="Сгруппировать 7552" transform="translate(31.057 24.589)">
      <g id="Сгруппировать_7551" data-name="Сгруппировать 7551">
        <path id="Контур_5275" data-name="Контур 5275" d="M386.567,306.239l-.647-1.294a.605.605,0,0,0-1.083.541l.647,1.294a.605.605,0,1,0,1.083-.541Z" transform="translate(-384.773 -304.61)" fill="#f2af1c"/>
      </g>
    </g>
    <g id="Сгруппировать_7554" data-name="Сгруппировать 7554" transform="translate(24.587 21.354)">
      <g id="Сгруппировать_7553" data-name="Сгруппировать 7553">
        <path id="Контур_5276" data-name="Контур 5276" d="M307.053,264.866a.605.605,0,0,0-.812-.271l-1.294.647a.605.605,0,1,0,.541,1.083l1.294-.647A.605.605,0,0,0,307.053,264.866Z" transform="translate(-304.612 -264.531)" fill="#f2af1c"/>
      </g>
    </g>
    <g id="Сгруппировать_7556" data-name="Сгруппировать 7556" transform="translate(6.47 19.413)">
      <g id="Сгруппировать_7555" data-name="Сгруппировать 7555">
        <path id="Контур_5277" data-name="Контур 5277" d="M81.956,242.111l-.647-1.294a.605.605,0,0,0-1.083.541l.647,1.294a.605.605,0,0,0,1.083-.541Z" transform="translate(-80.162 -240.482)" fill="#f2af1c"/>
      </g>
    </g>
    <g id="Сгруппировать_7558" data-name="Сгруппировать 7558" transform="translate(15.529 31.707)">
      <g id="Сгруппировать_7557" data-name="Сгруппировать 7557">
        <path id="Контур_5278" data-name="Контур 5278" d="M194.829,393.122a.605.605,0,0,0-.812-.271l-1.294.647a.605.605,0,1,0,.541,1.083l1.294-.647A.605.605,0,0,0,194.829,393.122Z" transform="translate(-192.388 -392.787)" fill="#f2af1c"/>
      </g>
    </g>
    <g id="Сгруппировать_7560" data-name="Сгруппировать 7560" transform="translate(16.176 6.472)">
      <g id="Сгруппировать_7559" data-name="Сгруппировать 7559">
        <path id="Контур_5279" data-name="Контур 5279" d="M202.087,80.987l-.647-.647a.605.605,0,0,0-.856.856l.647.647a.605.605,0,1,0,.856-.856Z" transform="translate(-200.406 -80.162)" fill="#f2af1c"/>
      </g>
    </g>
    <g id="Сгруппировать_7562" data-name="Сгруппировать 7562" transform="translate(14.882 21.354)">
      <g id="Сгруппировать_7561" data-name="Сгруппировать 7561">
        <path id="Контур_5280" data-name="Контур 5280" d="M186.054,265.357l-.647-.647a.605.605,0,0,0-.856.856l.647.647a.605.605,0,1,0,.856-.856Z" transform="translate(-184.373 -264.532)" fill="#f2af1c"/>
      </g>
    </g>
    <g id="Сгруппировать_7564" data-name="Сгруппировать 7564" transform="translate(22.646 34.942)">
      <g id="Сгруппировать_7563" data-name="Сгруппировать 7563">
        <path id="Контур_5281" data-name="Контур 5281" d="M281.171,432.87a.605.605,0,0,0-.605.605v.647a.605.605,0,1,0,1.211,0v-.647A.605.605,0,0,0,281.171,432.87Z" transform="translate(-280.566 -432.87)" fill="#f2af1c"/>
      </g>
    </g>
    <g id="Сгруппировать_7566" data-name="Сгруппировать 7566" transform="translate(18.764 10.355)">
      <g id="Сгруппировать_7565" data-name="Сгруппировать 7565">
        <path id="Контур_5282" data-name="Контур 5282" d="M234.151,128.438a.605.605,0,0,0-.856,0l-.647.647a.605.605,0,1,0,.856.856l.647-.647A.605.605,0,0,0,234.151,128.438Z" transform="translate(-232.47 -128.26)" fill="#f2af1c"/>
      </g>
    </g>
    <g id="Сгруппировать_7568" data-name="Сгруппировать 7568" transform="translate(28.178 3.008)">
      <g id="Сгруппировать_7567" data-name="Сгруппировать 7567">
        <path id="Контур_5283" data-name="Контур 5283" d="M355.633,37.956a2.518,2.518,0,0,0-2.49-.6l-2.044.613a2.563,2.563,0,0,0-1.78,2.02l-.186,1.114a2.552,2.552,0,0,0,1.618,2.8l1.643.616a2.546,2.546,0,0,0,3.365-1.767l.586-2.343A2.519,2.519,0,0,0,355.633,37.956Zm-.462,2.166-.586,2.343a1.336,1.336,0,0,1-1.765.927l-1.643-.616a1.338,1.338,0,0,1-.849-1.47l.186-1.114a1.344,1.344,0,0,1,.934-1.06l2.044-.613a1.357,1.357,0,0,1,.39-.058,1.338,1.338,0,0,1,1.29,1.661Z" transform="translate(-349.099 -37.249)" fill="#f2af1c"/>
      </g>
    </g>
    <g id="Сгруппировать_7570" data-name="Сгруппировать 7570" transform="translate(33.443 12.157)">
      <g id="Сгруппировать_7569" data-name="Сгруппировать 7569">
        <path id="Контур_5284" data-name="Контур 5284" d="M419.754,152.918a1.882,1.882,0,0,0-.747-1.3l-.859-.644a1.889,1.889,0,0,0-1.989-.179l-.781.391a1.9,1.9,0,0,0-.9,2.447l.629,1.467a1.887,1.887,0,0,0,1.472,1.131,1.936,1.936,0,0,0,.28.02,1.885,1.885,0,0,0,1.454-.684l1.011-1.214A1.883,1.883,0,0,0,419.754,152.918Zm-1.358.661-1.011,1.214a.689.689,0,0,1-1.162-.17l-.629-1.467a.689.689,0,0,1,.325-.887l.782-.391a.685.685,0,0,1,.721.065l.859.644a.689.689,0,0,1,.116.992Z" transform="translate(-414.328 -150.593)" fill="#f2af1c"/>
      </g>
    </g>
    <g id="Сгруппировать_7572" data-name="Сгруппировать 7572" transform="translate(37.528 7.12)">
      <g id="Сгруппировать_7571" data-name="Сгруппировать 7571">
        <path id="Контур_5285" data-name="Контур 5285" d="M466.835,88.18a1.9,1.9,0,1,0,1.9,1.9A1.9,1.9,0,0,0,466.835,88.18Zm0,2.588a.689.689,0,1,1,.689-.689A.69.69,0,0,1,466.835,90.768Z" transform="translate(-464.936 -88.18)" fill="#f2af1c"/>
      </g>
    </g>
    <g id="Сгруппировать_7574" data-name="Сгруппировать 7574" transform="translate(6.832 0.002)">
      <g id="Сгруппировать_7573" data-name="Сгруппировать 7573" transform="translate(0 0)">
        <path id="Контур_5286" data-name="Контур 5286" d="M118.531,22.954a1.29,1.29,0,0,0-1.1-.367,5.764,5.764,0,0,1-.833.061,5.844,5.844,0,0,1-5.581-4.069,1.881,1.881,0,0,0-1.429-1.285A9.74,9.74,0,0,1,103.3,2.327,1.254,1.254,0,0,0,102.5.4,20.819,20.819,0,0,0,96.221.123a20.431,20.431,0,0,0-11.37,5.032.605.605,0,0,0,.8.908,19.225,19.225,0,0,1,10.7-4.736,19.611,19.611,0,0,1,5.916.257.046.046,0,0,1,.038.028.043.043,0,0,1-.007.044,10.951,10.951,0,0,0,7.06,16.829.672.672,0,0,1,.5.466,7.052,7.052,0,0,0,6.734,4.909,6.973,6.973,0,0,0,1.009-.074.062.062,0,0,1,.068.026,19.381,19.381,0,0,1-4.585,9.689.605.605,0,0,0,.91.8,20.591,20.591,0,0,0,4.871-10.293A1.208,1.208,0,0,0,118.531,22.954Z" transform="translate(-84.645 -0.002)" fill="#f2af1c"/>
      </g>
    </g>
    <g id="Сгруппировать_7576" data-name="Сгруппировать 7576" transform="translate(-0.001 6.835)">
      <g id="Сгруппировать_7575" data-name="Сгруппировать 7575" transform="translate(0)">
        <path id="Контур_5287" data-name="Контур 5287" d="M34.352,113.153a.605.605,0,0,0-.854-.055A19.438,19.438,0,0,1,6.063,85.663a.605.605,0,1,0-.909-.8A20.65,20.65,0,0,0,34.3,114.008.605.605,0,0,0,34.352,113.153Z" transform="translate(0.001 -84.658)" fill="#f2af1c"/>
      </g>
    </g>
  </g>
</svg>
