<svg xmlns="http://www.w3.org/2000/svg" width="43.556" height="43.529" viewBox="0 0 43.556 43.529">
  <g id="gdpr" transform="translate(0 -0.154)">
    <g id="Сгруппировать_135" data-name="Сгруппировать 135" transform="translate(0 0.154)">
      <g id="Сгруппировать_134" data-name="Сгруппировать 134" transform="translate(0 0)">
        <path id="Контур_260" data-name="Контур 260" d="M221.674,3.406a.383.383,0,0,1,.1.329l-.2,1.246a.383.383,0,0,0,.562.4l1.017-.562a.383.383,0,0,1,.37,0l1.017.562a.383.383,0,0,0,.562-.4l-.2-1.246a.382.382,0,0,1,.1-.329l.875-.9a.383.383,0,0,0-.216-.645l-1.177-.18a.383.383,0,0,1-.288-.216L223.686.375a.383.383,0,0,0-.693,0l-.513,1.093a.383.383,0,0,1-.288.216l-1.177.18a.383.383,0,0,0-.216.645Z" transform="translate(-201.561 -0.154)" fill="#f2af1c"/>
        <path id="Контур_261" data-name="Контур 261" d="M225.662,443.242l-1.177-.18a.383.383,0,0,1-.288-.216l-.513-1.093a.383.383,0,0,0-.693,0l-.513,1.093a.383.383,0,0,1-.288.216l-1.177.18a.383.383,0,0,0-.216.645l.875.9a.383.383,0,0,1,.1.329l-.2,1.246a.383.383,0,0,0,.562.4l1.017-.562a.383.383,0,0,1,.37,0l1.017.562a.383.383,0,0,0,.562-.4l-.2-1.246a.382.382,0,0,1,.1-.329l.875-.9a.383.383,0,0,0-.216-.645Z" transform="translate(-201.56 -403.275)" fill="#f2af1c"/>
        <path id="Контур_262" data-name="Контур 262" d="M114.175,33.3a.383.383,0,0,1,.1.329l-.2,1.246a.383.383,0,0,0,.563.4l1.017-.562a.383.383,0,0,1,.37,0l1.017.562a.383.383,0,0,0,.562-.4l-.2-1.246a.383.383,0,0,1,.1-.329l.875-.9a.383.383,0,0,0-.216-.645l-1.177-.18a.383.383,0,0,1-.289-.216l-.513-1.093a.383.383,0,0,0-.689,0l-.517,1.093a.383.383,0,0,1-.288.216l-1.177.18a.383.383,0,0,0-.217.645Z" transform="translate(-103.38 -27.464)" fill="#f2af1c"/>
        <path id="Контур_263" data-name="Контур 263" d="M338.852,413.97l-1.177-.18a.382.382,0,0,1-.289-.216l-.513-1.092a.383.383,0,0,0-.693,0l-.513,1.092a.383.383,0,0,1-.288.216l-1.177.18a.383.383,0,0,0-.217.645l.875.9a.383.383,0,0,1,.1.329l-.2,1.247a.383.383,0,0,0,.563.4l1.017-.562a.383.383,0,0,1,.37,0l1.017.562a.383.383,0,0,0,.562-.4l-.2-1.247a.382.382,0,0,1,.1-.329l.875-.9a.383.383,0,0,0-.216-.645Z" transform="translate(-304.937 -376.542)" fill="#f2af1c"/>
        <path id="Контур_264" data-name="Контур 264" d="M34.064,109.479a.383.383,0,0,1,.1.329l-.2,1.246a.383.383,0,0,0,.562.4l1.017-.562a.383.383,0,0,1,.37,0l1.017.562a.383.383,0,0,0,.562-.4l-.2-1.246a.382.382,0,0,1,.1-.329l.876-.9a.383.383,0,0,0-.217-.645l-1.177-.18a.383.383,0,0,1-.288-.216l-.513-1.093a.383.383,0,0,0-.693,0l-.513,1.093a.383.383,0,0,1-.288.216l-1.177.18a.383.383,0,0,0-.216.645Z" transform="translate(-30.213 -97.033)" fill="#f2af1c"/>
        <path id="Контур_265" data-name="Контур 265" d="M420.286,328.635l-1.177-.18a.383.383,0,0,1-.288-.216l-.513-1.093a.383.383,0,0,0-.693,0l-.513,1.093a.383.383,0,0,1-.289.216l-1.177.18a.383.383,0,0,0-.216.645l.876.9a.383.383,0,0,1,.1.329l-.2,1.246a.383.383,0,0,0,.562.4l1.017-.562a.383.383,0,0,1,.37,0l1.017.562a.383.383,0,0,0,.563-.4l-.2-1.246a.382.382,0,0,1,.1-.329l.876-.9a.383.383,0,0,0-.217-.645Z" transform="translate(-379.313 -298.603)" fill="#f2af1c"/>
        <path id="Контур_266" data-name="Контур 266" d="M4.256,226.045a.382.382,0,0,0,.157-.374l-.2-1.246a.382.382,0,0,1,.1-.329l.875-.9a.383.383,0,0,0-.216-.645l-1.177-.18a.383.383,0,0,1-.288-.216L3,221.065a.383.383,0,0,0-.693,0l-.513,1.093a.383.383,0,0,1-.288.216l-1.177.18a.383.383,0,0,0-.216.645l.875.9a.383.383,0,0,1,.1.329l-.2,1.246a.383.383,0,0,0,.562.4l1.017-.562a.383.383,0,0,1,.37,0l1.017.562A.383.383,0,0,0,4.256,226.045Z" transform="translate(0 -201.715)" fill="#f2af1c"/>
        <path id="Контур_267" data-name="Контур 267" d="M446.569,223.2a.383.383,0,0,0-.216-.645l-1.177-.18a.383.383,0,0,1-.288-.216l-.513-1.093a.383.383,0,0,0-.693,0l-.513,1.093a.382.382,0,0,1-.288.216l-1.177.18a.383.383,0,0,0-.216.645l.875.9a.383.383,0,0,1,.1.329l-.2,1.246a.383.383,0,0,0,.562.4l1.017-.562a.383.383,0,0,1,.37,0l1.017.562a.383.383,0,0,0,.562-.4l-.2-1.246a.382.382,0,0,1,.1-.329Z" transform="translate(-403.122 -201.715)" fill="#f2af1c"/>
        <path id="Контур_268" data-name="Контур 268" d="M41.938,326.833l-1.177-.18a.383.383,0,0,1-.289-.216l-.513-1.092a.383.383,0,0,0-.692,0l-.513,1.09a.383.383,0,0,1-.288.216l-1.177.182a.383.383,0,0,0-.217.645l.876.9a.383.383,0,0,1,.1.329l-.2,1.25a.383.383,0,0,0,.563.4l1.017-.562a.383.383,0,0,1,.37,0l1.017.562a.383.383,0,0,0,.562-.4l-.2-1.246a.382.382,0,0,1,.1-.329l.875-.9a.383.383,0,0,0-.216-.645Z" transform="translate(-33.76 -296.958)" fill="#f2af1c"/>
        <path id="Контур_269" data-name="Контур 269" d="M420.24,107.717a.383.383,0,0,1,.1.329l-.2,1.25a.383.383,0,0,0,.562.4l1.017-.562a.383.383,0,0,1,.37,0l1.017.562a.383.383,0,0,0,.566-.4l-.2-1.246a.382.382,0,0,1,.1-.329l.876-.9a.383.383,0,0,0-.217-.645l-1.177-.18a.383.383,0,0,1-.288-.216l-.513-1.092a.383.383,0,0,0-.693,0l-.513,1.092a.383.383,0,0,1-.288.216l-1.177.18a.383.383,0,0,0-.216.645Z" transform="translate(-382.919 -95.428)" fill="#f2af1c"/>
        <path id="Контур_270" data-name="Контур 270" d="M114.277,403.042l-1.177-.18a.383.383,0,0,1-.288-.216l-.513-1.093a.383.383,0,0,0-.693,0l-.513,1.093a.383.383,0,0,1-.288.216l-1.177.18a.383.383,0,0,0-.216.645l.875.9a.383.383,0,0,1,.1.329l-.2,1.246a.383.383,0,0,0,.562.4l1.017-.562a.383.383,0,0,1,.37,0l1.017.562a.383.383,0,0,0,.562-.4l-.2-1.247a.382.382,0,0,1,.1-.329l.874-.9a.383.383,0,0,0-.214-.647Z" transform="translate(-99.83 -366.559)" fill="#f2af1c"/>
        <path id="Контур_271" data-name="Контур 271" d="M331.066,22.694l-.2,1.246a.383.383,0,0,0,.562.4l1.017-.562a.383.383,0,0,1,.37,0l1.017.562a.383.383,0,0,0,.562-.4l-.2-1.246a.382.382,0,0,1,.1-.329l.874-.9a.383.383,0,0,0-.216-.645l-1.177-.18a.383.383,0,0,1-.288-.216l-.513-1.093a.383.383,0,0,0-.693,0l-.513,1.093a.382.382,0,0,1-.288.216l-1.177.18a.383.383,0,0,0-.216.645l.877.9A.383.383,0,0,1,331.066,22.694Z" transform="translate(-301.375 -17.472)" fill="#f2af1c"/>
      </g>
    </g>
  </g>
</svg>
