<svg xmlns="http://www.w3.org/2000/svg" width="33.711" height="39.627" viewBox="0 0 33.711 39.627">
  <g id="_5" data-name="5" transform="translate(-13.6 -4.75)">
    <path id="Контур_5288" data-name="Контур 5288" d="M29.436,50.82h3.4a.586.586,0,0,0,.585-.585v-3.4a.586.586,0,0,0-.585-.585h-3.4a.585.585,0,0,0-.585.585v3.4a.585.585,0,0,0,.585.585Zm.585-3.4h2.23v2.229h-2.23Z" transform="translate(-10.151 -27.622)" fill="#f2af1c"/>
    <path id="Контур_5289" data-name="Контур 5289" d="M29.435,72.654h3.4a.586.586,0,0,0,.586-.585v-3.4a.586.586,0,0,0-.585-.585h-3.4a.585.585,0,0,0-.585.585v3.4A.585.585,0,0,0,29.435,72.654Zm.585-3.4h2.23v2.229H30.02Z" transform="translate(-10.15 -42.155)" fill="#f2af1c"/>
    <path id="Контур_5290" data-name="Контур 5290" d="M29.435,94.487h3.4a.586.586,0,0,0,.585-.585V90.5a.586.586,0,0,0-.585-.585h-3.4a.585.585,0,0,0-.585.585v3.4A.585.585,0,0,0,29.435,94.487Zm.585-3.4h2.23v2.228H30.02Z" transform="translate(-10.15 -56.688)" fill="#f2af1c"/>
    <path id="Контур_5291" data-name="Контур 5291" d="M29.435,28.987h3.4a.586.586,0,0,0,.585-.585V25a.586.586,0,0,0-.585-.585h-3.4A.585.585,0,0,0,28.85,25v3.4a.585.585,0,0,0,.585.585Zm.585-3.4h2.23v2.228H30.02Z" transform="translate(-10.15 -13.091)" fill="#f2af1c"/>
    <path id="Контур_5292" data-name="Контур 5292" d="M49.775,29.421H65.311a.585.585,0,1,0,0-1.17H49.775a.585.585,0,0,0,0,1.17Z" transform="translate(-23.689 -15.642)" fill="#f2af1c"/>
    <path id="Контур_5293" data-name="Контур 5293" d="M49.775,52.5H65.311a.585.585,0,1,0,0-1.17H49.775a.585.585,0,1,0,0,1.17Z" transform="translate(-23.689 -31.006)" fill="#f2af1c"/>
    <path id="Контур_5294" data-name="Контур 5294" d="M49.775,75.586H65.311a.585.585,0,1,0,0-1.17H49.775a.585.585,0,1,0,0,1.17Z" transform="translate(-23.689 -46.37)" fill="#f2af1c"/>
    <path id="Контур_5295" data-name="Контур 5295" d="M49.775,98.67H65.311a.585.585,0,1,0,0-1.17H49.775a.585.585,0,1,0,0,1.17Z" transform="translate(-23.689 -61.735)" fill="#f2af1c"/>
    <path id="Контур_5296" data-name="Контур 5296" d="M46.724,4.75H14.184a.585.585,0,0,0-.584.585V43.791a.585.585,0,0,0,.585.585h32.54a.585.585,0,0,0,.585-.585V5.335a.585.585,0,0,0-.587-.585Zm-.585,38.456H14.77V5.92H46.14Z" transform="translate(0)" fill="#f2af1c"/>
  </g>
</svg>
